<svg width="640" height="410" xmlns="http://www.w3.org/2000/svg">
 <g>
  <title>background</title>
  <rect fill="none" id="canvas_background" height="412" width="642" y="-1" x="-1"/>
 </g>

 <g>
  <title>Layer 1</title>
  <path fill="#f26400" stroke="#222829" id="svg_3" d="m517.863911,410.181476c67.951918,0 123.037043,-55.093993 123.037043,-123.037043c0,-60.982036 -41.012348,-112.795041 -102.526435,-112.795041c0,-51.25435 -30.761478,-92.266698 -92.275565,-92.266698l-10.259738,0c-27.968204,-50.491742 -81.732067,-82.024695 -143.538783,-82.024695c-90.599601,0 -164.049391,73.449789 -164.049391,164.049391c-67.951918,0 -123.037043,55.085125 -123.037043,123.037043c0,67.94305 55.085125,123.037043 123.037043,123.037043"/>
 </g>
 <g>
  <title>Layer 2</title>
  <g stroke="null" id="svg_7">
   <path stroke="#222829" d="m408.651745,355.951272a18.668755,18.668755 0 0 1 -18.668755,18.668755l-161.729523,0a18.668755,18.668755 0 0 1 -18.657995,-18.668755l0,-136.846816a18.668755,18.668755 0 0 1 18.657995,-18.663376l161.740283,0a18.668755,18.668755 0 0 1 18.663376,18.663376l0,136.852197l-0.005381,-0.005381zm-105.755538,-119.845876l12.444044,0m12.438663,0l12.444044,0m-62.209457,0l12.444044,0m-55.984745,101.187881l37.321371,-37.32675m0,37.32675l37.32675,-37.32675m0,37.32675l37.321371,-37.32675m0,37.32675l37.32675,-37.32675m-155.520951,-4.680638l180.403659,0m-199.061654,37.660313l180.392899,0" id="svg_4" fill="#ffffff"/>
   <path stroke="#222829" d="m383.769038,200.4357l0,-49.765413c0,-41.221903 -33.426218,-74.64812 -74.64812,-74.64812c-41.227282,0 -74.64812,33.426218 -74.64812,74.64812l0,49.765413" id="svg_6" fill="#ffffff"/>
   <path stroke="#222829" fill="#de6391" d="m348.336955,177.982992l0,-31.096658a37.33213,37.33213 0 0 0 -74.64812,0l0,31.096658" id="svg_5"/>
  </g>
 </g>
</svg>