<svg width="640" height="410" xmlns="http://www.w3.org/2000/svg">
 <g>
  <title>background</title>
  <rect x="-1" y="-1" width="642" height="412" id="canvas_background" fill="none"/>
 </g>

 <g>
  <title>Layer 1</title>
  <path d="m517.863911,410.181476c67.951918,0 123.037043,-55.093993 123.037043,-123.037043c0,-60.982036 -41.012348,-112.795041 -102.526435,-112.795041c0,-51.25435 -30.761478,-92.266698 -92.275565,-92.266698l-10.259738,0c-27.968204,-50.491742 -81.732067,-82.024695 -143.538783,-82.024695c-90.599601,0 -164.049391,73.449789 -164.049391,164.049391c-67.951918,0 -123.037043,55.085125 -123.037043,123.037043c0,67.94305 55.085125,123.037043 123.037043,123.037043" id="svg_3" stroke="#222829" fill="#f26400"/>
 </g>
 <g>
  <title>Layer 2</title>
  <g id="svg_4" stroke="#222829">
   <path fill="#ffffff" id="svg_5" d="m244.06704,192.85971l-9.19426,0m-9.18873,0l-9.19426,0m-45.96577,-63.39402l82.73728,0c2.53863,0 4.59712,2.00883 4.59712,4.49227l0,80.87746c0,2.48344 -2.05298,4.49227 -4.59712,4.49227l-64.34876,0m128.70304,-89.862l59.75164,0c5.07726,0 9.19426,4.0287 9.19426,8.98455l0,4.49779c0,4.95585 -4.117,8.98455 -9.19426,8.98455m-9.18873,0l13.78587,0c5.07726,0 9.19426,4.0287 9.19426,8.98455l0,4.49227c0,4.96689 -4.117,8.99006 -9.19426,8.99006l-13.78036,0m9.18322,0c5.07726,0 9.19426,4.0287 9.19426,8.98455l0,4.49227c0,4.96689 -4.117,8.99006 -9.19426,8.99006l-13.78587,0m-105.72292,13.47682l22.98013,0l36.77702,8.98455l55.1545,0c5.07726,0 9.19426,-4.0287 9.19426,-8.98455l0,-4.49227c0,-4.96137 -4.117,-8.98455 -9.19426,-8.98455" stroke-linejoin="round" stroke="null"/>
   <path fill="#ffffff" id="svg_6" d="m322.21271,106.99881l-22.98564,4.49227l-27.57725,26.95915l-13.79691,0" stroke-linejoin="round" stroke="null"/>
   <path id="svg_7" d="m358.98422,129.46569l-27.58278,0l-9.18873,-35.9437l45.96577,0l-9.19426,35.9437z" stroke-linejoin="round" fill="#de6391" stroke="null"/>
   <path fill="#ffffff" id="svg_8" d="m372.76458,218.86963c13.79691,22.92494 50.56842,49.8896 50.56842,85.8333c0,44.65782 -37.04192,67.39513 -82.73728,67.39513c-45.69535,0 -82.73728,-22.73178 -82.73728,-67.39513c0,-35.94921 36.77151,-62.90836 50.55738,-85.82779" stroke="null"/>
   <path fill="#ffffff" id="svg_9" d="m326.80432,309.19521c0,7.43929 6.18101,13.47682 13.79691,13.47682c7.60485,0 13.78587,-6.03753 13.78587,-13.47682c0,-7.44482 -13.79138,-13.48233 -13.79138,-13.48233s-13.79138,-6.03753 -13.79138,-13.47682c0,-7.44482 6.18101,-13.48233 13.79691,-13.48233c7.60485,0 13.78587,6.03753 13.78587,13.48233m-18.30021,-13.48233l0,-13.47682m0,67.39513l0,13.48233m32.0916,-43.95694l9.18873,0m-73.54302,0l9.19426,0" stroke="null"/>
  </g>
 </g>
</svg>