<svg width="640" height="410" xmlns="http://www.w3.org/2000/svg">
 <g>
  <title>background</title>
  <rect x="-1" y="-1" width="642" height="412" id="canvas_background" fill="none"/>
 </g>

 <g>
  <title>Layer 1</title>
  <path d="m517.863911,410.181476c67.951918,0 123.037043,-55.093993 123.037043,-123.037043c0,-60.982036 -41.012348,-112.795041 -102.526435,-112.795041c0,-51.25435 -30.761478,-92.266698 -92.275565,-92.266698l-10.259738,0c-27.968204,-50.491742 -81.732067,-82.024695 -143.538783,-82.024695c-90.599601,0 -164.049391,73.449789 -164.049391,164.049391c-67.951918,0 -123.037043,55.085125 -123.037043,123.037043c0,67.94305 55.085125,123.037043 123.037043,123.037043" id="svg_3" stroke="#222829" fill="#f26400"/>
 </g>
 <g>
  <title>Layer 2</title>
  <g stroke="null" id="svg_8">
   <path stroke="#222829" d="m309.807879,173.639057l0,26.770021m40.804285,178.466806l-74.489502,0l0,-89.233403l60.52272,0l13.966781,13.38501l0,75.848392l0.000001,0.000001zm-60.52272,-69.698936l18.622375,0m-18.622375,20.396207l46.555939,0m-46.555939,15.297155l46.555939,0m-46.555939,15.297155l46.555939,0m121.045441,18.70842l-74.489502,0l0,-89.233403l60.52272,0l13.966781,13.38501l0,75.848392l0.000001,0.000001zm-60.52272,-69.698936l18.622375,0m-18.622375,20.396207l46.555939,0m-46.555939,15.297155l46.555939,0m-46.555939,15.297155l46.555939,0m-200.190537,18.70842l-74.489502,0l0,-89.233403l60.52272,0l13.966781,13.38501l0,75.848392l0.000001,0.000001zm-60.52272,-69.698936l18.622375,0m-18.622375,20.396207l46.555939,0m-46.555939,15.297155l46.555939,0m-46.555939,15.297155l46.555939,0m80.241156,-97.295003l0,26.770021" id="svg_3" fill="#ffffff"/>
   <path stroke="#222829" fill="#de6391" d="m420.446072,102.252335c20.553782,0 37.244751,15.990626 37.244751,35.693361c0,19.697636 -16.690969,35.693361 -37.244751,35.693361c-20.559103,0 -37.244751,-15.995725 -37.244751,-35.693361c0,-19.702735 16.685649,-35.693361 37.244751,-35.693361z" id="svg_4"/>
   <path stroke="#222829" fill="#ffffff" d="m313.367413,102.252335c20.553782,0 37.244751,15.990626 37.244751,35.693361c0,19.697636 -16.690969,35.693361 -37.244751,35.693361c-20.559103,0 -37.244751,-15.995725 -37.244751,-35.693361c0,-19.702735 16.685649,-35.693361 37.244751,-35.693361z" id="svg_5"/>
   <path stroke="#222829" fill="#de6391" d="m206.288754,102.252335c20.553782,0 37.244751,15.990626 37.244751,35.693361c0,19.697636 -16.690969,35.693361 -37.244751,35.693361c-20.559103,0 -37.244751,-15.995725 -37.244751,-35.693361c0,-19.702735 16.685649,-35.693361 37.244751,-35.693361z" id="svg_6"/>
   <path stroke="#222829" d="m373.890134,253.94912a9.311188,8.92334 0 0 1 -9.311188,8.92334l-102.423066,0a9.311188,8.92334 0 0 1 -9.311188,-8.92334l0,-44.616701c0,-4.925684 4.166091,-8.92334 9.311188,-8.92334l102.423066,0c5.139776,0 9.311188,3.997657 9.311188,8.92334l0,44.616701zm-135.012223,-31.231691l-23.277969,0a9.311188,8.92334 0 0 1 -9.311188,-8.92334l0,-40.155031m32.589157,66.925052l-23.277969,0a9.311188,8.92334 0 0 0 -9.311188,8.92334l0,40.155031m181.568161,-66.925052l23.277969,0a9.311188,8.92334 0 0 0 9.311188,-8.92334l0,-40.155031m-32.589157,66.925052l23.277969,0c5.139776,0 9.311188,3.997657 9.311188,8.92334l0,40.155031m-111.734253,-56.951308l9.311188,0m-27.933563,0l9.311188,0m27.933563,0l9.311188,0" id="svg_7" fill="#ffffff"/>
  </g>
 </g>
</svg>