<?xml version="1.0" standalone="no"?>
<!DOCTYPE svg PUBLIC "-//W3C//DTD SVG 20010904//EN"
 "http://www.w3.org/TR/2001/REC-SVG-20010904/DTD/svg10.dtd">
<svg version="1.0" xmlns="http://www.w3.org/2000/svg"
 width="100.000000pt" height="100.000000pt" viewBox="0 0 100.000000 100.000000"
 preserveAspectRatio="xMidYMid meet">
<metadata>
Created by potrace 1.11, written by Peter Selinger 2001-2013
</metadata>
<g transform="translate(0.000000,100.000000) scale(0.100000,-0.100000)"
fill="#000000" stroke="none">
<path d="M314 951 c-42 -19 -86 -68 -99 -108 -3 -13 -13 -23 -21 -23 -26 0
-88 -37 -120 -72 -50 -52 -68 -96 -69 -168 -2 -73 16 -125 63 -178 17 -18 33
-49 37 -70 14 -77 64 -133 135 -152 26 -7 40 -17 40 -27 0 -30 42 -84 81 -103
51 -27 223 -29 276 -4 39 19 83 72 83 101 0 15 11 23 40 32 73 22 140 101 140
165 0 11 12 35 28 51 15 17 34 44 44 60 20 37 34 105 21 105 -11 0 -11 29 0
47 14 23 -31 114 -78 156 -25 24 -90 57 -109 57 -7 0 -17 11 -20 24 -9 37 -56
87 -101 107 -31 14 -65 19 -148 19 -60 0 -117 -5 -129 -11 -14 -8 -23 -8 -31
0 -14 14 -14 14 -63 -8z"/>
</g>
</svg>
